# xmcd CD database file
# Copyright (C) 1995-1998 Ti Kan
#
# Track frame offsets:
#	150
#	9617
#	14825
#	21147
#	27622
#	35230
#	41210
#	54772
#	62265
#	67250
#	75045
#	82265
#	108920
#	139255
#	173877
#	184402
#	192865
#	200900
#	209165
#	214922
#	225900
#	249745
#	266250
#	283845
#
# Disc length: 4169 seconds
#
# Revision: 1
# Processed by: cddbd v1.4b41PL1 Copyright (c) Steve Scherf et al.
# Submitted via: CDex 1.30Release
#
DISCID=6c104718
DTITLE=div. - Het Historische Orgel in Nederland [10]
DYEAR=2000
DGENRE=Blues
TTITLE0=Adolph Hesse: Einleitung, Thema und Variationen in A-Dur op. 47 · He
TTITLE0=rvormde Kerk, Winkel · Cor van Wageningen
TTITLE1=Adolph Hesse: Einleitung, Thema und Variationen in A-Dur op. 47 · He
TTITLE1=rvormde Kerk, Winkel · Cor van Wageningen
TTITLE2=Adolph Hesse: Einleitung, Thema und Variationen in A-Dur op. 47 · He
TTITLE2=rvormde Kerk, Winkel · Cor van Wageningen
TTITLE3=Adolph Hesse: Einleitung, Thema und Variationen in A-Dur op. 47 · He
TTITLE3=rvormde Kerk, Winkel · Cor van Wageningen
TTITLE4=Adolph Hesse: Einleitung, Thema und Variationen in A-Dur op. 47 · He
TTITLE4=rvormde Kerk, Winkel · Cor van Wageningen
TTITLE5=Adolph Hesse: Einleitung, Thema und Variationen in A-Dur op. 47 · He
TTITLE5=rvormde Kerk, Winkel · Cor van Wageningen
TTITLE6=Adolph Hesse: Einleitung, Thema und Variationen in A-Dur op. 47 · He
TTITLE6=rvormde Kerk, Winkel · Cor van Wageningen
TTITLE7=Adolph Hesse: Variierter Choral "Jesu, meine Freude" · Hervormde Ker
TTITLE7=k, Winkel · Cor van Wageningen
TTITLE8=Adolph Hesse: Variierter Choral "Jesu, meine Freude" · Hervormde Ker
TTITLE8=k, Winkel · Cor van Wageningen
TTITLE9=Adolph Hesse: Variierter Choral "Jesu, meine Freude" · Hervormde Ker
TTITLE9=k, Winkel · Cor van Wageningen
TTITLE10=Max Reger: Wie schön leucht' uns der Morgenstern · Grote of St-Lebu
TTITLE10=ïnuskerk · Gerrit Christiaan de Gier
TTITLE11=Gustav Merkel: Sonate Nr. 6 in e, op. 137 (Grave, Moderato) · Grote
TTITLE11=of St-Lebuïnuskerk · Gerrit Christiaan de Gier
TTITLE12=Gustav Merkel: Sonate Nr. 6 in e, op. 137 (Adagio molto) · Grote of
TTITLE12=St-Lebuïnuskerk · Gerrit Christiaan de Gier
TTITLE13=Gustav Merkel: Sonate Nr. 6 in e, op. 137 (Introduktion: Allegro ri
TTITLE13=soluto - Poco moderato) · Grote of St-Lebuïnuskerk · Gerrit Christi
TTITLE13=aan de Gier
TTITLE14=Johann Christian Heinrich Rinck: Befiehl du deine Wege · Grote of O
TTITLE14=nze-Lieve-Vrouwekerk, Tholen · Kees van Eersel
TTITLE15=Johann Christian Heinrich Rinck: Befiehl du deine Wege · Grote of O
TTITLE15=nze-Lieve-Vrouwekerk, Tholen · Kees van Eersel
TTITLE16=Johann Christian Heinrich Rinck: Befiehl du deine Wege · Grote of O
TTITLE16=nze-Lieve-Vrouwekerk, Tholen · Kees van Eersel
TTITLE17=Johann Christian Heinrich Rinck: Befiehl du deine Wege · Grote of O
TTITLE17=nze-Lieve-Vrouwekerk, Tholen · Kees van Eersel
TTITLE18=Johann Christian Heinrich Rinck: Befiehl du deine Wege · Grote of O
TTITLE18=nze-Lieve-Vrouwekerk, Tholen · Kees van Eersel
TTITLE19=Johann Christian Heinrich Rinck: Befiehl du deine Wege · Grote of O
TTITLE19=nze-Lieve-Vrouwekerk, Tholen · Kees van Eersel
TTITLE20=Samuel Sebastian Wesley: Andante in Es · Grote of Onze-Lieve-Vrouwe
TTITLE20=kerk, Tholen · Kees van Eersel
TTITLE21=Johannes Worp: Fantasie in F (Maestoso) · Grote of Onze-Lieve-Vrouw
TTITLE21=ekerk, Tholen · Kees van Eersel
TTITLE22=Johannes Worp: Fantasie in F (Adagio) · Grote of Onze-Lieve-Vrouwek
TTITLE22=erk, Tholen · Kees van Eersel
TTITLE23=Johannes Worp: Fantasie in F (Tempo I: Maestoso - Fuga) · Grote of 
TTITLE23=Onze-Lieve-Vrouwekerk, Tholen · Kees van Eersel
EXTD=YEAR: 2000 ID3G:   0
EXTT0=
EXTT1=
EXTT2=
EXTT3=
EXTT4=
EXTT5=
EXTT6=
EXTT7=
EXTT8=
EXTT9=
EXTT10=
EXTT11=
EXTT12=
EXTT13=
EXTT14=
EXTT15=
EXTT16=
EXTT17=
EXTT18=
EXTT19=
EXTT20=
EXTT21=
EXTT22=
EXTT23=
PLAYORDER=
